General
Complete name                            : E:\Mona_PowerMac_and_VPC\VPC\VPC_10\data\VPC_10_m.mov
Format                                   : MPEG-4
Format profile                           : QuickTime
Codec ID                                 : qt   0000.02 (qt  )
File size                                : 5.48 GiB
Duration                                 : 13 min 26 s
Overall bit rate mode                    : Variable
Overall bit rate                         : 58.3 Mb/s
Frame rate                               : 29.970 FPS
Writing application                      : Lavf54.63.104

Video
ID                                       : 1
Format                                   : ProRes
Format version                           : Version 0
Format profile                           : 422 HQ
Codec ID                                 : apch
Duration                                 : 13 min 26 s
Bit rate mode                            : Variable
Bit rate                                 : 56.8 Mb/s
Width                                    : 720 pixels
Height                                   : 486 pixels
Display aspect ratio                     : 4:3
Frame rate mode                          : Constant
Frame rate                               : 29.970 (30000/1001) FPS
Standard                                 : NTSC
Color space                              : YUV
Chroma subsampling                       : 4:2:2
Scan type                                : Progressive
Bits/(Pixel*Frame)                       : 5.415
Stream size                              : 5.33 GiB (97%)
Writing library                          : fmpg
Language                                 : English
Matrix coefficients                      : BT.601

Audio
ID                                       : 2
Format                                   : PCM
Format settings                          : Little / Signed
Codec ID                                 : sowt
Duration                                 : 13 min 26 s
Bit rate mode                            : Constant
Bit rate                                 : 1 536 kb/s
Channel(s)                               : 2 channels
Channel layout                           : L R
Sampling rate                            : 48.0 kHz
Bit depth                                : 16 bits
Stream size                              : 148 MiB (3%)
Language                                 : English
Default                                  : Yes
Alternate group                          : 1

Other
ID                                       : 3
Type                                     : Time code
Format                                   : QuickTime TC
Duration                                 : 13 min 26 s
Frame rate                               : 29.970 (30000/1001) FPS
Time code of first frame                 : 00:03:11:02
Time code of last frame                  : 00:16:36:28
Time code, stripped                      : Yes
Language                                 : English